<svg width="109" height="21" viewBox="0 0 109 21" fill="none" xmlns="http://www.w3.org/2000/svg">
<path d="M0 0.550049H14.1714V3.83576H3.88571V9.37862H12.8V12.6643H3.88571V20.55H0V0.550049Z" fill="white"/>
<path d="M16.6049 0.550049H20.4906V20.55H16.6049V0.550049Z" fill="white"/>
<path d="M24.0725 17.2643V3.83576L27.3583 0.550049H37.644L40.9297 3.83576V17.2643L37.644 20.55H27.3583L24.0725 17.2643ZM35.5868 17.2358L37.044 15.7786V5.32148L35.5868 3.86433H29.4154L27.9583 5.32148V15.7786L29.4154 17.2358H35.5868Z" fill="white"/>
<path d="M44.3638 0.550049H47.8496L56.7638 14.1215H56.821V0.550049H60.5638V20.55H57.0781L48.1638 7.00719H48.1067V20.55H44.3638V0.550049Z" fill="white"/>
<path d="M64.2505 19.2331V17.2732L65.4971 15.9563H67.6134L68.8311 17.3038V19.2025L67.6134 20.55H65.4971L64.2505 19.2331Z" fill="#A1DB00"/>
<path d="M72.5176 0.550049H85.3176L88.7461 3.97862V17.1215L85.3176 20.55H72.5176V0.550049ZM83.4033 17.2358L84.8604 15.7786V5.32148L83.4033 3.86433H76.4033V17.2358H83.4033Z" fill="#A1DB00"/>
<path d="M92.1883 0.550049H104.731L107.588 3.40719V9.00719L106.445 10.1786L108.474 12.2358V17.4643L105.388 20.55H92.1883V0.550049ZM102.731 8.92148L103.76 7.89291V4.80719L102.76 3.80719H95.9883V8.92148H102.731ZM103.417 17.2929L104.645 16.0643V13.2643L103.417 12.0358H95.9883V17.2929H103.417Z" fill="#A1DB00"/>
</svg>
