<svg width="17" height="20" viewBox="0 0 17 20" fill="none" xmlns="http://www.w3.org/2000/svg">
<path d="M7.70081 19.05C5.68414 18.8 4.01347 17.9206 2.68881 16.412C1.36347 14.904 0.700806 13.1333 0.700806 11.1C0.700806 9.99998 0.917472 8.94564 1.35081 7.93698C1.78414 6.92898 2.40081 6.04998 3.20081 5.29998L4.62581 6.72498C3.99247 7.29164 3.51347 7.94998 3.18881 8.69998C2.86347 9.44998 2.70081 10.25 2.70081 11.1C2.70081 12.5666 3.16747 13.8623 4.10081 14.987C5.03414 16.1123 6.23414 16.8 7.70081 17.05V19.05ZM9.70081 19.05V17.05C11.1508 16.7833 12.3465 16.0916 13.2878 14.975C14.2298 13.8583 14.7008 12.5666 14.7008 11.1C14.7008 9.43331 14.1175 8.01664 12.9508 6.84998C11.7841 5.68331 10.3675 5.09998 8.70081 5.09998H8.62581L9.72581 6.19998L8.32581 7.59998L4.82581 4.09998L8.32581 0.599976L9.72581 1.99998L8.62581 3.09998H8.70081C10.9341 3.09998 12.8258 3.87498 14.3758 5.42498C15.9258 6.97498 16.7008 8.86664 16.7008 11.1C16.7008 13.1166 16.0385 14.8793 14.7138 16.388C13.3885 17.896 11.7175 18.7833 9.70081 19.05Z" fill="#ABEE02"/>
</svg>
